# xmcd
#
# Track frame offsets: 
#        150
#        14507
#        27732
#        41305
#        51050
#        66450
#        80480
#        96057
#        111002
#        129530
#        144412
#        156650
#        174580
#        190845
#        209430
#
# Disc length: 2943 seconds
#
# Revision: 4
# Processed by: cddbd v1.5.2PL0 Copyright (c) Steve Scherf et al.
# Submitted via: ExactAudioCopy v0.99pb5
#
DISCID=d70b7d0f
DTITLE=Various Artist - Classic Country Vol. 11 1980-1984 Disc 2
DYEAR=1999
DGENRE=Country
TTITLE0=Eddie Rabbitt - I Love A Rainy Night
TTITLE1=Conway Twitty - Slow Hand
TTITLE2=Ricky Skaggs - Crying My Heart Out Over You
TTITLE3=Waylon Jennings - Theme From The Dukes Of Hazzard (Good Ol' Bo
TTITLE3=ys)
TTITLE4=Frizzell And West - You're The Reason God Made Oklahoma
TTITLE5=Charley Pride - Never Been So Loved (In All My Life)
TTITLE6=Statler Brothers - Elizabeth
TTITLE7=George Jones - He Stopped Loving Her Today
TTITLE8=Earl Thomas Conley - Somewhere Between Right And Wrong
TTITLE9=Jerry Reed - She Got The Goldmine (I Got The Shaft)
TTITLE10=John Anderson - Wild And Blue
TTITLE11=Crystal Gayle - Til I Gain Control Again
TTITLE12=Alabama - The Closer You Get
TTITLE13=Juice Newton - The Sweetest Thing (I've Ever Known)
TTITLE14=Willie Nelson - On The Road Again
EXTD=YEAR: 1999
EXTT0=
EXTT1=
EXTT2=
EXTT3=
EXTT4=
EXTT5=
EXTT6=
EXTT7=
EXTT8=
EXTT9=
EXTT10=
EXTT11=
EXTT12=
EXTT13=
EXTT14=
PLAYORDER=
